<svg width="30" height="12" viewBox="0 0 30 12" fill="none" xmlns="http://www.w3.org/2000/svg">
<path d="M7.54901 5.27344H5.99361C5.9652 5.07221 5.9072 4.89347 5.8196 4.73722C5.73201 4.5786 5.61956 4.44366 5.48224 4.33239C5.34493 4.22112 5.18632 4.13589 5.00639 4.0767C4.82884 4.01752 4.63589 3.98793 4.42756 3.98793C4.05114 3.98793 3.72325 4.08144 3.44389 4.26847C3.16454 4.45312 2.94792 4.72301 2.79403 5.07812C2.64015 5.43087 2.56321 5.85937 2.56321 6.36364C2.56321 6.8821 2.64015 7.31771 2.79403 7.67045C2.95028 8.0232 3.16809 8.28954 3.44744 8.46946C3.7268 8.64938 4.04995 8.73935 4.4169 8.73935C4.62287 8.73935 4.81345 8.71212 4.98864 8.65767C5.16619 8.60322 5.32363 8.52391 5.46094 8.41974C5.59825 8.31321 5.71188 8.18419 5.80185 8.03267C5.89418 7.88116 5.9581 7.70833 5.99361 7.5142L7.54901 7.52131C7.50876 7.85511 7.40814 8.17708 7.24716 8.48722C7.08854 8.79498 6.87429 9.07079 6.6044 9.31463C6.33688 9.55611 6.01728 9.74787 5.6456 9.88991C5.27628 10.0296 4.85843 10.0994 4.39205 10.0994C3.74337 10.0994 3.16335 9.95265 2.65199 9.65909C2.14299 9.36553 1.74053 8.94058 1.4446 8.38423C1.15104 7.82789 1.00426 7.15436 1.00426 6.36364C1.00426 5.57055 1.15341 4.89583 1.4517 4.33949C1.75 3.78314 2.15483 3.35937 2.66619 3.06818C3.17756 2.77462 3.75284 2.62784 4.39205 2.62784C4.81345 2.62784 5.20407 2.68703 5.56392 2.8054C5.92614 2.92377 6.24692 3.09659 6.52628 3.32386C6.80563 3.54877 7.03291 3.82457 7.2081 4.15128C7.38565 4.47798 7.49929 4.85204 7.54901 5.27344ZM9.76847 10H8.12074L10.6314 2.72727H12.6129L15.12 10H13.4723L11.6506 4.3892H11.5938L9.76847 10ZM9.66548 7.14134H13.5575V8.34162H9.66548V7.14134ZM19.7747 4.81889C19.7463 4.53243 19.6243 4.3099 19.4089 4.15128C19.1935 3.99266 18.9011 3.91335 18.5318 3.91335C18.2808 3.91335 18.069 3.94886 17.8961 4.01989C17.7233 4.08854 17.5907 4.18442 17.4984 4.30753C17.4084 4.43063 17.3635 4.57031 17.3635 4.72656C17.3587 4.85677 17.3859 4.97041 17.4451 5.06747C17.5067 5.16454 17.5907 5.24858 17.6973 5.3196C17.8038 5.38826 17.9269 5.44863 18.0666 5.50071C18.2063 5.55043 18.3554 5.59304 18.514 5.62855L19.1674 5.7848C19.4847 5.85582 19.7759 5.95052 20.041 6.06889C20.3062 6.18726 20.5358 6.33286 20.7299 6.50568C20.9241 6.6785 21.0744 6.8821 21.1809 7.11648C21.2898 7.35085 21.3455 7.61955 21.3478 7.92259C21.3455 8.36766 21.2318 8.75355 21.0069 9.08026C20.7844 9.40459 20.4624 9.65672 20.041 9.83665C19.622 10.0142 19.1165 10.103 18.5247 10.103C17.9376 10.103 17.4262 10.013 16.9906 9.8331C16.5574 9.65317 16.2188 9.38684 15.975 9.03409C15.7335 8.67898 15.6068 8.23982 15.595 7.71662H17.0829C17.0995 7.96046 17.1693 8.16406 17.2924 8.32741C17.4179 8.4884 17.5848 8.61032 17.7931 8.69318C18.0038 8.77367 18.2418 8.81392 18.5069 8.81392C18.7673 8.81392 18.9934 8.77604 19.1852 8.70028C19.3793 8.62453 19.5297 8.51918 19.6362 8.38423C19.7427 8.24929 19.796 8.09422 19.796 7.91903C19.796 7.75568 19.7475 7.61837 19.6504 7.5071C19.5557 7.39583 19.416 7.30114 19.2314 7.22301C19.0491 7.14489 18.8253 7.07386 18.5602 7.00994L17.7683 6.81108C17.1551 6.66193 16.671 6.42874 16.3159 6.11151C15.9608 5.79427 15.7844 5.36695 15.7868 4.82955C15.7844 4.3892 15.9016 4.0045 16.1383 3.67543C16.3774 3.34635 16.7053 3.08949 17.122 2.90483C17.5386 2.72017 18.0121 2.62784 18.5424 2.62784C19.0822 2.62784 19.5533 2.72017 19.9558 2.90483C20.3606 3.08949 20.6755 3.34635 20.9004 3.67543C21.1253 4.0045 21.2413 4.38565 21.2484 4.81889H19.7747ZM22.3821 10V2.72727H23.9197V5.72798H27.0412V2.72727H28.5753V10H27.0412V6.99574H23.9197V10H22.3821Z" fill="black"/>
</svg>
