<svg width="20" height="5" viewBox="0 0 20 5" fill="none" xmlns="http://www.w3.org/2000/svg">
<path fill-rule="evenodd" clip-rule="evenodd" d="M3.98647 0C4.38299 0 4.70489 0.328874 4.70489 0.734024L4.70317 3.96157C4.70317 4.36709 4.38134 4.69559 3.98467 4.69559H0.707324C0.315525 4.68944 0 4.36327 0 3.96157V0.734024C0 0.328874 0.321375 0 0.718274 0H3.98647ZM1.28002 0.373047H0.917471C0.707096 0.373047 0.545996 0.542922 0.537896 0.754046L0.536621 0.914696V3.89542L0.537746 3.92632C0.537746 4.14464 0.712796 4.32157 0.928421 4.32157L1.107 4.31939C1.50352 4.31939 1.82542 4.02794 1.82542 3.66772C1.82542 3.50264 1.75777 3.35144 1.64579 3.23669L0.779396 2.35627L1.70399 1.42065C1.80959 1.31062 1.87469 1.16002 1.87469 0.993896C1.87469 0.657972 1.60844 0.373047 1.28002 0.373047ZM2.58102 0.373047H2.18937C2.30172 0.535047 2.37199 0.758246 2.37199 1.01017C2.37199 1.32877 2.26017 1.60815 2.09247 1.76565L1.52832 2.34674L2.08122 2.90887C2.24067 3.08827 2.34237 3.35962 2.34237 3.66382C2.34237 3.91319 2.15569 4.31572 2.15569 4.31572L3.77179 4.31669C3.84724 4.31669 3.92209 4.30012 3.98217 4.26269L2.09787 2.34652L3.00477 1.42065C3.11089 1.31062 3.17614 1.16002 3.17614 0.993896C3.17614 0.657972 2.90997 0.373047 2.58102 0.373047ZM3.48874 0.365723C3.60244 0.527872 3.67302 0.756772 3.67302 1.01005C3.67302 1.28507 3.58999 1.53092 3.45934 1.69405L2.81592 2.34572L4.16629 3.71822L4.16727 0.769372C4.16727 0.551047 3.99274 0.374123 3.77644 0.374123L3.48874 0.365723ZM18.3376 1.17822C18.7531 1.17822 19.0924 1.36587 19.0924 1.76787C19.0924 2.07912 18.9446 2.28672 18.6427 2.357V2.36375C18.8439 2.41737 18.857 2.59467 18.9751 2.87937L19.2031 3.51552H18.5518L18.4177 3.09387C18.2903 2.69187 18.2098 2.5913 17.9777 2.5913H17.8468V3.51552H17.2222V1.17822H18.3376ZM16.2612 1.17822C16.6977 1.17822 17.0233 1.36925 17.0233 1.77102C17.0233 2.06555 16.8724 2.22972 16.6105 2.31695V2.32347C16.9227 2.38722 17.0838 2.5547 17.0838 2.83917C17.0838 3.39829 16.5901 3.51552 16.1707 3.51552H15.1836V1.17822H16.2612ZM12.8787 1.17823V2.13283H12.8854L13.5903 1.17823H14.3423L13.4763 2.26648L14.4095 3.51553H13.6137L12.8854 2.45413H12.8787V3.51553H12.254V1.17823H12.8787ZM10.6825 1.17822L11.4747 2.76552H11.4814L11.4713 1.17822H12.0419V3.51552H11.2663L10.4474 1.91832H10.4407L10.4607 3.51552H9.88672V1.17822H10.6825ZM8.89659 1.17823L9.79996 3.51553H9.11476L8.94054 3.01656H8.06071L7.87569 3.51553H7.24171L8.13099 1.17823H8.89659ZM6.48905 1.17823C6.9254 1.17823 7.25098 1.36926 7.25098 1.77103C7.25098 2.06556 7.1 2.22973 6.83795 2.31696V2.32348C7.15055 2.38723 7.3115 2.55471 7.3115 2.83918C7.3115 3.3983 6.81778 3.51553 6.39838 3.51553H5.41108V1.17823H6.48905ZM20.0004 1.17822V3.51552H19.376V1.17822H20.0004ZM15.9998 2.52466H15.8081V3.07373H15.9929C16.221 3.07373 16.4593 3.04013 16.4593 2.80268C16.4593 2.54798 16.2145 2.52466 15.9998 2.52466ZM6.22734 2.52466H6.03564V3.07373H6.22044C6.44829 3.07373 6.68709 3.04013 6.68709 2.80268C6.68709 2.54798 6.44222 2.52466 6.22734 2.52466ZM8.51404 1.66064H8.50699L8.20459 2.57482H8.79266L8.51404 1.66064ZM18.0115 1.62079H17.8471V2.14939H18.0115C18.2131 2.14939 18.4684 2.14279 18.4684 1.87834C18.4684 1.66084 18.2499 1.62079 18.0115 1.62079ZM15.9895 1.62085H15.8081V2.10295H15.9829C16.1875 2.10295 16.399 2.05262 16.399 1.85477C16.399 1.6408 16.1974 1.62085 15.9895 1.62085ZM6.21722 1.62085H6.03564V2.10295H6.21054C6.41499 2.10295 6.62672 2.05262 6.62672 1.85477C6.62672 1.6408 6.42512 1.62085 6.21722 1.62085Z" fill="#00539A"/>
</svg>
