<svg width="34" height="11" viewBox="0 0 34 11" fill="none" xmlns="http://www.w3.org/2000/svg">
<path fill-rule="evenodd" clip-rule="evenodd" d="M1.35847 1.09649C2.79488 0.361842 4.2861 0 5.82668 0H5.85957V0.372807H5.82668C4.36286 0.372807 2.95387 0.71272 1.58873 1.39803C1.03501 2.71382 0.722507 4.05154 0.706059 5.41667C0.684129 6.77084 0.963735 8.1579 1.58325 9.57237C3.00869 10.1919 4.43413 10.5099 5.85957 10.5263V10.8991C4.36286 10.8827 2.86615 10.5483 1.36944 9.88487L1.27075 9.79167C0.634787 8.36623 0.338734 6.96272 0.333252 5.58663V5.48794V5.41119C0.349699 3.98026 0.684129 2.57127 1.27075 1.18969L1.35847 1.09649ZM5.85897 0C7.38857 0.00548246 8.96752 0.367325 10.5903 1.09101L10.6671 1.1239L10.6945 1.20066V1.20614C10.8261 1.60636 10.9412 2.00658 11.0344 2.4068C11.1276 2.80702 11.2044 3.20724 11.2592 3.60746C11.3359 4.13377 11.3798 4.65461 11.3908 5.18092V5.79496C11.3579 7.12171 11.1276 8.44847 10.6945 9.77522L10.6671 9.85198L10.5903 9.88487C9.05524 10.5647 7.51467 10.8991 5.97958 10.8991H5.85897V10.5263H5.97958C7.43792 10.5263 8.90173 10.2138 10.3655 9.57786C11.0015 7.60417 11.177 5.63049 10.8919 3.6568C10.837 3.27303 10.7603 2.87829 10.6671 2.48904C10.5848 2.12719 10.4807 1.75987 10.3655 1.39803C8.81401 0.718202 7.31182 0.37829 5.85897 0.372807V0Z" fill="#003399"/>
<path fill-rule="evenodd" clip-rule="evenodd" d="M5.95857 8.49227C5.88182 7.44512 5.93116 6.35411 5.61866 5.3563C5.32809 4.42428 4.22612 3.89248 4.20419 2.86726C4.18226 2.06682 4.79081 1.14029 5.93116 1.14029C7.00024 1.13481 7.66362 1.91331 7.74037 2.77954C7.83357 3.78283 6.61647 4.45718 6.29849 5.41112C5.96954 6.387 6.06274 7.46705 5.95857 8.49227Z" fill="#003399"/>
<path fill-rule="evenodd" clip-rule="evenodd" d="M6.38066 8.24013C6.3368 7.33004 6.3368 6.45833 6.58899 5.6853C6.8686 4.80811 7.44974 4.06798 8.3379 3.82675C8.94645 3.66228 9.84009 4.37499 9.69755 5.10416C9.57693 5.69078 8.99031 6.38157 8.04733 6.45833C7.60873 6.4967 7.42233 6.84758 7.1482 7.05043C8.37627 6.92982 9.17123 6.44736 9.72496 5.94298C9.8072 6.37061 9.86202 7.08881 9.52759 7.33552C8.8697 7.80153 8.26114 7.42324 7.48812 7.64254C7.055 7.76863 6.78636 8.04276 6.38066 8.24013Z" fill="#003399"/>
<path fill-rule="evenodd" clip-rule="evenodd" d="M5.5411 8.24019C5.59045 7.3301 5.58496 6.45839 5.33825 5.68536C5.05865 4.80817 4.47751 4.06804 3.58935 3.82681C2.9808 3.66234 2.08167 4.37506 2.2297 5.10422C2.35031 5.69084 2.93694 6.38163 3.87992 6.45839C4.31303 6.49677 4.50492 6.84764 4.77904 7.05049C3.54549 6.92988 2.75601 6.44742 2.20229 5.94304C2.12005 6.37067 2.06522 7.08887 2.39965 7.33558C3.05755 7.80159 3.6661 7.4233 4.43913 7.6426C4.87224 7.7687 5.1354 8.04282 5.5411 8.24019Z" fill="#003399"/>
<path fill-rule="evenodd" clip-rule="evenodd" d="M4.18772 9.23056L3.90263 9.14634L3.76009 10.5594L3.92456 10.6062L3.98487 10.0166L4.02325 10.026C4.06163 10.0354 4.08904 10.0541 4.10549 10.0634C4.12193 10.0822 4.1329 10.1102 4.14935 10.1383C4.15483 10.1664 4.17128 10.2132 4.18772 10.2787V9.83884C4.17128 9.83884 4.15483 9.82949 4.1329 9.82949L4.01228 9.79205L4.04518 9.43644L4.17676 9.47388H4.18772V9.23056ZM3.33786 9.8108L3.37076 9.57685L3.72712 9.73594L3.6394 10.2881C3.59554 10.3349 3.54071 10.3629 3.46396 10.3723C3.39269 10.3816 3.3269 10.3723 3.26111 10.3442C3.17339 10.3068 3.10212 10.2413 3.05278 10.1571C2.99795 10.0635 2.96506 9.95117 2.94861 9.82952C2.93764 9.6985 2.93764 9.56749 2.95957 9.43648C2.9815 9.2961 3.01988 9.17445 3.07471 9.07151C3.12405 8.97793 3.18984 8.92178 3.26659 8.8937C3.3269 8.86563 3.39817 8.87499 3.47492 8.91242C3.57361 8.95921 3.65036 9.02472 3.69422 9.12766C3.73808 9.22124 3.76001 9.3429 3.75453 9.47391L3.58457 9.45519C3.58457 9.38033 3.57361 9.31482 3.5462 9.25867C3.51878 9.21188 3.48589 9.16509 3.43655 9.14637C3.36528 9.1183 3.30497 9.12766 3.25014 9.18381C3.19532 9.23996 3.15694 9.35225 3.12953 9.50198C3.10212 9.67043 3.1076 9.80144 3.13501 9.90438C3.16791 10.0073 3.21725 10.0728 3.28304 10.1009C3.32142 10.1196 3.35431 10.1196 3.39269 10.1196C3.43106 10.1103 3.46396 10.0915 3.49685 10.0728L3.52427 9.89503L3.33786 9.8108ZM4.66988 9.38967L4.83435 9.41774L4.79598 10.1945C4.79049 10.3161 4.79049 10.4003 4.79049 10.4284C4.79598 10.4939 4.81242 10.5407 4.83435 10.5782C4.86176 10.6249 4.89466 10.6437 4.944 10.653C4.99334 10.6624 5.03172 10.6437 5.05365 10.6156C5.08106 10.5875 5.09751 10.5501 5.10848 10.5033C5.11396 10.4565 5.11944 10.3723 5.12492 10.26L5.1633 9.46453L5.33326 9.49261L5.29488 10.2413C5.2894 10.4191 5.27843 10.5407 5.26198 10.6062C5.25102 10.6717 5.22909 10.7372 5.20716 10.7747C5.17975 10.8215 5.14137 10.8589 5.09751 10.8776C5.05913 10.9057 5.00431 10.9057 4.93852 10.8963C4.85628 10.887 4.79598 10.8589 4.7576 10.8215C4.71922 10.784 4.68633 10.7372 4.6644 10.6904C4.64247 10.6343 4.6315 10.5782 4.62602 10.522C4.62054 10.4378 4.62054 10.3161 4.62602 10.157L4.66988 9.38967ZM4.18815 10.2787V9.83885C4.23749 9.85757 4.27039 9.85757 4.28683 9.85757C4.30876 9.84821 4.32521 9.83885 4.34166 9.81077C4.35262 9.7827 4.36359 9.75463 4.36907 9.70783C4.37455 9.66104 4.36907 9.62361 4.35811 9.58618C4.34714 9.54875 4.32521 9.53003 4.2978 9.51131C4.28683 9.50196 4.24846 9.4926 4.18815 9.47388V9.23057L4.25942 9.24928C4.34714 9.27736 4.40745 9.30543 4.44583 9.34287C4.4842 9.3803 4.51162 9.43645 4.52806 9.51131C4.54451 9.57682 4.54999 9.66104 4.53903 9.74527C4.52806 9.84821 4.50065 9.93243 4.45679 9.98858C4.41841 10.0447 4.35811 10.0728 4.28135 10.0728C4.31425 10.1196 4.34166 10.1664 4.35811 10.2132C4.38004 10.2693 4.40197 10.3535 4.42938 10.4752L4.50065 10.784L4.30328 10.7185L4.21556 10.3723C4.2046 10.3442 4.19912 10.3068 4.18815 10.2787ZM5.77213 9.52999V9.77331H5.70634L5.62411 9.76395V10.1757H5.71183H5.77213V10.419H5.72827H5.61862L5.61314 10.9618L5.44318 10.9524L5.45963 9.52064L5.72827 9.52999H5.77213ZM5.77262 10.4191V10.1758C5.811 10.1758 5.83293 10.1664 5.84938 10.157C5.87131 10.1477 5.88775 10.1196 5.9042 10.0915C5.91517 10.0541 5.92065 10.0167 5.92065 9.97924C5.92613 9.92309 5.91517 9.88566 5.89872 9.84823C5.88227 9.81079 5.86034 9.79208 5.83293 9.78272C5.81648 9.78272 5.80004 9.77336 5.77262 9.77336V9.53005C5.85486 9.53005 5.9042 9.53941 5.93161 9.55812C5.98096 9.57684 6.01933 9.62363 6.05223 9.6985C6.08512 9.77336 6.10157 9.86694 6.09609 9.97924C6.09609 10.0635 6.08512 10.1383 6.06868 10.2038C6.04675 10.26 6.02482 10.3068 5.9974 10.3442C5.96451 10.3723 5.9371 10.391 5.9042 10.4097C5.87131 10.4191 5.82745 10.4191 5.77262 10.4191ZM6.82988 9.4739V9.71721C6.80795 9.71721 6.78602 9.72657 6.75861 9.72657L6.65992 9.74528L6.67637 10.0728L6.7915 10.0541C6.80247 10.0541 6.81892 10.0541 6.82988 10.0447V10.2881H6.8244L6.69282 10.3068L6.70927 10.6905L6.82988 10.6717V10.9151L6.55576 10.9618L6.479 9.53005L6.81343 9.48325C6.81892 9.4739 6.8244 9.4739 6.82988 9.4739ZM7.86613 10.1289L8.03609 10.1663C8.02512 10.3254 7.99771 10.4564 7.94837 10.55C7.89903 10.6342 7.82775 10.6998 7.74004 10.7278C7.63039 10.7559 7.5317 10.7185 7.44946 10.6155C7.36174 10.5032 7.3124 10.3441 7.28499 10.1195C7.26306 9.88559 7.27951 9.68907 7.33981 9.53934C7.39464 9.38961 7.48236 9.29603 7.59749 9.25859C7.70166 9.23052 7.78389 9.25859 7.86065 9.34282C7.90451 9.38961 7.94289 9.46447 7.9703 9.57677L7.81131 9.68907C7.79486 9.62356 7.76745 9.56741 7.73455 9.53934C7.69618 9.50191 7.6578 9.49255 7.61394 9.50191C7.55363 9.52062 7.50977 9.57677 7.47688 9.66099C7.44398 9.75458 7.4385 9.87623 7.45495 10.0447C7.47688 10.2225 7.50977 10.3441 7.55363 10.4096C7.59749 10.4752 7.65232 10.5032 7.71262 10.4845C7.75648 10.4658 7.78938 10.4284 7.81679 10.3722C7.8442 10.3161 7.86065 10.2318 7.86613 10.1289ZM6.82975 10.9152V10.6718H6.86813C6.92844 10.6625 6.96681 10.6531 6.98326 10.6438C7.00519 10.6344 7.02712 10.6063 7.03809 10.5783C7.05453 10.5408 7.06002 10.5034 7.06002 10.4566C7.05453 10.4098 7.04905 10.3724 7.0326 10.3443C7.02164 10.3162 6.99971 10.2975 6.97778 10.2882C6.95585 10.2788 6.90651 10.2788 6.82975 10.2882V10.0448C6.87361 10.0448 6.90102 10.0355 6.91199 10.0355C6.9394 10.0261 6.96133 9.99805 6.97778 9.96998C6.99423 9.94191 6.99971 9.90447 6.99423 9.85768C6.99423 9.81089 6.98326 9.77346 6.96681 9.75474C6.95585 9.72667 6.93392 9.70795 6.90102 9.70795C6.89006 9.70795 6.86813 9.70795 6.82975 9.71731V9.474C6.89006 9.46464 6.93392 9.46464 6.96133 9.474C6.99423 9.474 7.02712 9.49271 7.05453 9.52079C7.08194 9.53951 7.10387 9.57694 7.1258 9.62373C7.14225 9.67052 7.15322 9.72667 7.1587 9.79218C7.16418 9.85768 7.15322 9.92319 7.13677 9.97934C7.12032 10.0355 7.09291 10.0823 7.05453 10.1197C7.10936 10.1384 7.15322 10.1759 7.18063 10.232C7.21352 10.2882 7.22997 10.3537 7.23545 10.4379C7.23545 10.5034 7.22997 10.5689 7.21901 10.6344C7.20256 10.6999 7.18063 10.7467 7.15322 10.7935C7.12032 10.8309 7.08743 10.859 7.04357 10.8777C7.01616 10.8871 6.94488 10.8964 6.84072 10.9152H6.82975ZM8.46425 9.05275V9.52066L8.3875 9.33349L8.3546 9.89498L8.46425 9.84819V10.1009L8.33816 10.1477L8.31623 10.4939L8.14079 10.5688L8.25592 9.04339L8.43136 8.96852L8.46425 9.05275ZM8.46387 10.1009V9.8482L8.57352 9.80141L8.46387 9.52066V9.05275L8.95729 10.2225L8.78185 10.2974L8.66123 10.0073L8.46387 10.1009Z" fill="#003399"/>
<path fill-rule="evenodd" clip-rule="evenodd" d="M14.9606 1.64427L13.8696 3.7605L14.3575 3.72212L13.0417 9.49515H16.8082C16.9727 9.49515 17.1317 9.4787 17.2961 9.44581V7.54339C17.2029 7.60918 17.0988 7.64756 16.9946 7.64756H15.6404L16.09 5.90962H17.1042C17.1755 5.90962 17.2413 5.9151 17.2961 5.92607V4.74186H16.3532L16.7314 3.1958H17.2961V1.69361L14.9606 1.64427ZM20.3106 6.27139V7.13762C20.2205 6.85253 20.2205 6.56196 20.3106 6.27139ZM17.2962 9.446C19.067 9.09512 20.805 6.96793 19.0615 5.27385C19.7414 4.912 20.1635 4.25959 20.2677 3.61266V2.96025C20.1471 2.28591 19.6262 1.73766 18.6449 1.72121L17.2962 1.6938V3.196H17.8554C18.453 3.196 18.3762 4.74205 17.6306 4.74205H17.2962V5.92626C18.1021 6.07977 17.817 7.19819 17.2962 7.54358V9.446ZM26.8521 7.70805L26.0243 9.49533H26.8521V7.70805ZM26.852 1.94046V4.36371L26.7423 4.62687C25.1085 3.45911 22.6963 4.5227 22.5592 5.75626C22.4221 7.04463 23.4035 8.0863 25.909 7.30779L25.0482 9.61042C21.7423 9.97775 20.4594 8.66744 20.2675 7.13784V6.27161C20.3169 5.87139 20.421 5.48213 20.5636 5.12029C22.1919 1.07424 24.8344 1.98432 25.8377 1.90757L25.9857 1.45801L26.852 1.94046ZM20.2675 3.61271C20.3726 3.38793 20.3726 3.16863 20.2675 2.9603V3.61271ZM26.8521 4.3637L27.6799 2.40098L26.8521 1.94045V4.3637ZM30.317 1.75962V5.15326L29.6372 6.51291H30.317V8.05896H29.0341L28.5078 9.49537H26.8521V7.70809L28.6997 3.72234H28.3214L29.374 1.75962H30.317ZM30.3171 8.05902V6.51296H30.9969V3.79366L30.3171 5.15331V1.75967H32.987L33.6669 9.57766H30.9969V8.05902H30.3171Z" fill="#003399"/>
</svg>
