<svg width="34" height="10" viewBox="0 0 34 10" fill="none" xmlns="http://www.w3.org/2000/svg">
<path fill-rule="evenodd" clip-rule="evenodd" d="M3.84396 7.82919L3.47228 7.36684C2.71066 7.97883 1.90697 8.62047 1.25706 9.13798H4.77556C4.54662 8.65253 4.1315 8.18777 3.84396 7.82919ZM5.36097 5.83293C5.09101 6.05635 4.75485 6.33079 4.3811 6.63351L4.73968 7.08069C5.2603 7.73026 6.01916 8.85356 6.96111 8.54981L6.99558 8.59256L6.32705 9.138H9.47112V6.97588C7.85306 7.85542 6.46359 7.05518 5.36097 5.83293ZM0.333252 3.45872V9.13797H0.333942L3.09875 6.90171L0.333252 3.45872ZM6.77316 2.30827L6.76971 2.31103C5.81604 3.08575 6.05084 4.3018 6.93762 5.39303C7.6227 6.23672 8.5381 6.82802 9.47107 6.3798V2.78476C8.63326 1.92694 7.62787 1.61423 6.77316 2.30827ZM5.54486 3.79812C5.60485 3.28164 5.76103 2.30521 6.71022 1.58152C7.53252 0.954701 8.55963 0.834717 9.47089 1.22156V0H4.40018C4.0654 1.48773 4.94528 3.12131 5.54486 3.79812ZM4.00766 6.16711L4.97995 5.38101C4.81859 5.17759 4.66482 4.96796 4.51829 4.75626C3.38913 3.12751 2.72404 1.46705 3.20605 0H0.333325V1.58427L4.00766 6.16711Z" fill="#F05A22"/>
<path fill-rule="evenodd" clip-rule="evenodd" d="M15.1966 8.19511L14.0912 8.19718V4.59559V4.54422L15.279 4.53939C16.6633 4.53939 17.8059 5.0538 17.8059 6.40052C17.8059 7.71966 16.6068 8.19511 15.1966 8.19511ZM14.0912 0.841879L15.2376 0.861187C16.0882 0.861187 16.9591 1.27734 16.9591 2.23583C16.9591 3.37395 16.1896 3.67909 15.0925 3.67909L14.0912 3.68115V3.67909V0.841879ZM17.084 3.81814C17.9252 3.67057 18.4721 2.94308 18.4721 2.01286C18.4721 0.778197 17.4036 2.42373e-05 15.5707 2.42373e-05H11.946V0.0413981C12.6859 0.447896 12.6694 1.10298 12.6694 1.72773V7.39387C12.6694 8.03241 12.6859 8.69439 11.946 9.09399V9.13537H13.6913C15.397 9.13537 16.703 9.16433 17.6808 8.70508C18.7176 8.2179 19.3475 7.34422 19.3475 6.2754C19.3475 4.91489 18.3335 4.08155 17.084 3.81814ZM22.1258 7.39626C22.1258 8.17409 22.1116 8.72953 22.8474 9.15982V9.20119H20.3901V9.15982C21.1262 8.72953 21.1135 8.17409 21.1135 7.39626V1.84493C21.1135 1.06744 21.1262 0.458215 20.3912 0.0417186V0H22.4312V0.0137913C22.4864 0.180666 22.5754 0.271688 22.6395 0.360987C22.704 0.44994 22.8332 0.638536 22.8332 0.638536L27.5119 6.94529V1.79114C27.5119 1.01331 27.5261 0.458215 26.7896 0.0417186V0H29.2334V0.0417186C28.5115 0.458215 28.5115 1.01331 28.5115 1.79114V9.65389C28.0667 9.47702 26.821 8.44198 25.9356 7.25076C24.3472 5.1138 22.1258 2.14592 22.1258 2.14592V7.39626ZM31.5101 1.6553C31.5101 1.01676 31.5012 0.448561 30.7913 0.0413738V0H33.666V0.0413738C32.9541 0.436494 32.9479 1.03055 32.9479 1.6553V7.49556C32.9479 8.11996 32.9317 8.74953 33.666 9.15844V9.19947H30.7913V9.15844C31.5301 8.74505 31.5101 8.12444 31.5101 7.50004V1.6553Z" fill="#005E6A"/>
</svg>
