<svg width="20" height="3" viewBox="0 0 20 3" fill="none" xmlns="http://www.w3.org/2000/svg">
<path fill-rule="evenodd" clip-rule="evenodd" d="M0 2.90959H3.15158V0H0V2.90959Z" fill="#7B141F"/>
<path fill-rule="evenodd" clip-rule="evenodd" d="M0.397461 0.507324L1.15343 1.44995L0.397461 2.48049H2.08572L2.9301 1.44995L2.08572 0.507324H0.397461Z" fill="#DF1F26"/>
<path fill-rule="evenodd" clip-rule="evenodd" d="M0.397461 0.506836L1.15343 1.44947H2.9301L2.08572 0.506836H0.397461Z" fill="white"/>
<path fill-rule="evenodd" clip-rule="evenodd" d="M5.28662 1.04629C5.19975 0.943912 5.07358 0.885482 4.91174 0.885482C4.58133 0.885482 4.33778 1.15178 4.33778 1.51683C4.33778 1.88241 4.58133 2.1487 4.89778 2.1487C5.07358 2.1487 5.2163 2.07062 5.30627 1.93825L5.66977 2.20609C5.50482 2.4393 5.22509 2.54737 4.9531 2.54737C4.33468 2.54737 3.88379 2.1456 3.88379 1.51683C3.88379 0.888068 4.33468 0.486816 4.9531 0.486816C5.17493 0.486816 5.45467 0.561792 5.62272 0.774828L5.28662 1.04629Z" fill="#7B141F"/>
<mask id="mask0_1_2739" style="mask-type:alpha" maskUnits="userSpaceOnUse" x="0" y="0" width="20" height="3">
<path fill-rule="evenodd" clip-rule="evenodd" d="M0 2.90959H20V0H0V2.90959Z" fill="white"/>
</mask>
<g mask="url(#mask0_1_2739)">
<path fill-rule="evenodd" clip-rule="evenodd" d="M5.90264 2.49686H6.33905V0.536621H5.90264V2.49686Z" fill="#7B141F"/>
<path fill-rule="evenodd" clip-rule="evenodd" d="M6.73633 0.536865H7.39715L7.85373 1.81611H7.85942L8.3191 0.536865H8.9763V2.4971H8.53989V0.993961H8.53472L8.01351 2.4971H7.68051L7.17895 0.993961H7.17326V2.4971H6.73633V0.536865Z" fill="#7B141F"/>
<path fill-rule="evenodd" clip-rule="evenodd" d="M9.81642 2.13202H10.2089C10.3454 2.13202 10.5 2.07359 10.5 1.90243C10.5 1.7168 10.2901 1.68578 10.1473 1.68578H9.81642V2.13202ZM9.81641 1.32095H10.1334C10.2673 1.32095 10.4079 1.26511 10.4079 1.10792C10.4079 0.944521 10.2508 0.903155 10.1132 0.903155H9.81641V1.32095ZM9.37988 0.536865H10.1188C10.4663 0.536865 10.8437 0.609256 10.8437 1.03533C10.8437 1.25405 10.7072 1.40349 10.503 1.46709V1.47329C10.7631 1.50587 10.9368 1.69719 10.9368 1.9521C10.9368 2.36163 10.5443 2.49762 10.1912 2.49762H9.37988V0.536865Z" fill="#7B141F"/>
<path fill-rule="evenodd" clip-rule="evenodd" d="M11.4922 0.568359H11.7802L12.894 2.16613H12.9002V0.568359H13.1282V2.49292H12.8402L11.7264 0.894118H11.7213V2.49292H11.4922V0.568359Z" fill="#7B141F"/>
<path fill-rule="evenodd" clip-rule="evenodd" d="M13.6069 2.49267H13.836V0.568115H13.6069V2.49267Z" fill="#7B141F"/>
<path fill-rule="evenodd" clip-rule="evenodd" d="M15.0426 0.861816H15.0374L14.6377 1.80755H15.4226L15.0426 0.861816ZM14.9393 0.568604H15.1544L15.9724 2.49265H15.7056L15.5102 2.02004H14.5479L14.3493 2.49265H14.0913L14.9393 0.568604Z" fill="#7B141F"/>
<path fill-rule="evenodd" clip-rule="evenodd" d="M17.864 2.36218C17.6437 2.48472 17.3939 2.54109 17.1432 2.54109C16.5459 2.54109 16.1157 2.13363 16.1157 1.5302C16.1157 0.924187 16.5749 0.518799 17.1514 0.518799C17.4043 0.518799 17.6494 0.587053 17.8314 0.772166L17.6602 0.951592C17.5299 0.81043 17.3309 0.731317 17.1349 0.731317C16.6948 0.731317 16.3603 1.06276 16.3603 1.5302C16.3603 1.98988 16.684 2.3296 17.1576 2.3296C17.3122 2.3296 17.4937 2.28875 17.6354 2.21791V1.62793H17.1923V1.41593H17.864V2.36218Z" fill="#7B141F"/>
<path fill-rule="evenodd" clip-rule="evenodd" d="M19.0704 0.861816H19.0652L18.6655 1.80755H19.451L19.0704 0.861816ZM18.9676 0.568604H19.1827L20.0002 2.49265H19.7339L19.538 2.02004H18.5757L18.3771 2.49265H18.1196L18.9676 0.568604Z" fill="#7B141F"/>
</g>
</svg>
